<svg width="436" height="436" viewBox="0 0 436 436" fill="none" xmlns="http://www.w3.org/2000/svg">
<path d="M212.369 181.149L170.754 186.431C170.754 186.431 153.483 267.892 152.217 277.712C150.877 287.532 155.567 294.971 155.567 294.971L176.486 331.945L178.869 330.085C181.028 333.731 181.549 336.334 181.102 338.417C180.283 342.36 176.189 344.667 173.211 348.758C168.67 355.007 175.221 356.644 175.221 356.644H186.016L185.867 358.727L219.739 357.834C220.335 350.395 213.784 347.791 211.699 347.196C209.615 346.601 205.744 342.658 205.744 342.658L206.041 334.623C206.041 334.623 223.164 213.659 223.164 212.543C223.164 211.353 226.514 208.6 226.514 208.6L212.369 181.149ZM190.11 233.299L186.164 301.816L179.539 280.837L190.11 233.299Z" fill="#FFD400" stroke="black" stroke-miterlimit="10"/>
<path d="M219.516 357.685L185.643 358.578L185.792 356.495H174.998C174.998 356.495 168.446 354.858 172.988 348.609C175.965 344.518 180.06 342.212 180.879 338.269C181.325 336.111 180.804 333.507 178.645 329.937L184.601 325.473V333.879L205.893 334.4L205.595 342.435C205.595 342.435 209.54 346.378 211.55 346.973C213.486 347.642 220.112 350.246 219.516 357.685Z" fill="white" stroke="black" stroke-miterlimit="10"/>
<path d="M187.579 339.087L188.1 334.028" stroke="black" stroke-miterlimit="10" stroke-linecap="round" stroke-linejoin="round"/>
<path d="M219.814 357.686L185.941 358.578L186.09 356.495H175.295C175.295 356.495 168.744 354.859 173.285 348.61C176.263 344.518 180.358 342.212 181.177 338.269C183.708 338.343 187.132 338.492 188.026 339.087V344.443C188.026 344.443 190.333 345.634 191.227 347.419C192.195 349.13 193.609 348.089 195.917 346.378C198.225 344.667 201.351 342.658 205.893 342.584C205.893 342.584 209.838 346.527 211.848 347.122C213.858 347.642 220.409 350.246 219.814 357.686Z" fill="#202020"/>
<path d="M175.221 191.118C175.221 191.118 189.142 206.145 209.689 182.488L213.039 125.874L211.923 110.103L176.933 111.516L175.221 191.118Z" fill="white" stroke="black" stroke-miterlimit="10"/>
<path d="M163.384 125.205L169.116 184.422L204.925 171.775L201.724 125.279C201.724 125.279 201.872 121.708 200.309 121.708C198.746 121.708 163.384 125.205 163.384 125.205Z" fill="white" stroke="black" stroke-miterlimit="10"/>
<path d="M159.215 129.371L192.195 123.791C192.195 123.791 196.14 122.75 196.512 124.684C196.885 126.618 204.627 173.486 204.627 173.486C204.627 173.486 205.893 178.694 202.84 178.992C199.788 179.289 166.957 184.72 166.957 184.72L159.215 129.371Z" fill="white" stroke="black" stroke-miterlimit="10"/>
<path d="M164.426 173.561C164.426 173.561 163.384 194.019 161.746 201.384C160.108 208.749 158.768 217.156 158.768 217.156C158.768 217.156 158.173 220.875 164.426 216.709C170.68 212.543 176.635 207.336 176.635 207.336L179.539 182.562L167.032 184.72L166.362 173.486H164.426V173.561Z" fill="#202020"/>
<path d="M241.85 163.146C241.701 160.542 240.659 154.367 239.393 148.044C237.979 140.604 236.341 132.942 235.969 130.859C235.224 126.916 232.916 113.748 227.407 111.144C221.898 108.466 217.581 107.499 214.603 107.053C211.55 106.606 207.679 103.259 206.265 102.887C204.85 102.515 202.989 101.176 202.989 101.176C202.989 101.176 203.138 108.615 204.255 108.764C205.297 108.913 207.307 113.004 208.275 115.236C209.243 117.468 209.764 143.803 209.764 143.803L208.498 182.488C208.498 182.488 209.094 193.126 210.285 194.689C211.253 195.879 215.273 198.036 217.581 199.524C217.581 199.524 218.995 189.704 218.995 188.365C218.995 187.026 219.665 175.049 219.665 172.743C219.665 170.436 220.484 157.417 220.484 157.417C221.824 157.715 222.643 160.914 223.164 164.857C223.834 170.511 223.76 177.727 223.238 180.182C222.271 184.348 217.655 199.599 217.655 199.599C218.325 199.971 218.772 200.343 219.069 200.64C220.335 201.905 224.876 205.922 224.876 205.922L225.695 202.5L238.425 178.099C238.425 178.099 240.659 172.817 241.552 167.833C241.701 166.121 241.85 164.559 241.85 163.146Z" fill="#202020"/>
<path d="M208.424 146.481C208.349 147.597 205.371 149.085 205.371 149.085C205.371 151.689 204.329 153.698 204.329 153.698C204.404 164.336 187.802 164.931 187.802 164.931C187.802 164.931 180.209 168.204 170.01 171.627C166.66 172.742 163.086 173.858 159.438 174.974C144.4 179.289 149.09 158.236 149.09 158.236C149.09 158.236 156.237 133.909 159.215 121.708C162.193 109.508 172.913 106.383 175.444 106.383C177.975 106.383 185.941 105.565 186.983 104.449C188.026 103.333 195.321 101.101 195.321 101.101L195.396 107.871C195.396 107.871 189.514 114.195 189.44 115.162C189.366 116.129 188.844 122.303 188.844 122.303L163.235 125.13L163.31 128.999L159.066 129.371L162.64 155.111H168.67C168.67 155.111 183.261 151.54 184.229 151.243C185.197 150.945 189.142 144.696 189.366 143.952C189.589 143.208 192.492 142.762 193.237 142.762C193.981 142.762 198.82 139.637 198.82 139.637C199.044 143.282 196.215 144.324 195.47 144.696C194.726 145.068 193.46 148.416 193.46 148.416C193.46 148.416 204.701 144.696 206.041 144.324C207.53 143.952 208.498 145.366 208.424 146.481Z" fill="#202020"/>
<path d="M170.01 171.329C167.181 170.436 164.277 167.461 164.277 163.071C164.277 160.096 166.139 157.343 167.776 155.483H168.893H168.967C169.563 155.334 183.559 151.912 184.601 151.615C185.867 151.243 189.812 144.622 190.036 144.026C190.185 143.58 192.567 143.059 193.535 143.059C194.205 143.059 197.182 141.199 198.746 140.307C198.597 142.911 196.661 143.878 195.768 144.25L195.545 144.324C194.726 144.77 193.683 147.449 193.386 148.267L193.088 149.011L193.832 148.788C193.981 148.713 205.074 144.994 206.414 144.696C206.563 144.696 206.637 144.622 206.711 144.622C207.084 144.622 207.381 144.845 207.605 145.068C207.977 145.44 208.126 145.961 208.126 146.481C208.051 147.077 206.414 148.193 205.297 148.788L205.074 148.862V149.085C205.074 151.615 204.106 153.474 204.106 153.549L204.031 153.623V153.698C204.106 163.815 188.026 164.559 187.877 164.559H187.802H187.728C187.579 164.634 179.985 167.907 170.01 171.329Z" fill="white"/>
<path d="M198.15 141.051C197.704 142.911 196.289 143.58 195.47 143.952C195.396 143.952 195.321 144.026 195.247 144.026C194.353 144.473 193.386 146.853 192.939 148.192L192.418 149.606L193.907 149.085C194.056 149.011 205.148 145.366 206.488 144.994C206.563 144.994 206.637 144.994 206.711 144.994C206.935 144.994 207.084 145.068 207.307 145.291C207.605 145.589 207.754 146.035 207.754 146.407C207.679 146.779 206.414 147.746 205.148 148.416L204.776 148.639V149.085C204.776 151.466 203.808 153.326 203.808 153.326L203.734 153.474V153.698C203.808 163.443 188.1 164.187 187.951 164.187H187.802L187.653 164.262C187.579 164.262 180.06 167.535 170.159 170.883C167.553 169.99 164.799 167.163 164.799 162.997C164.799 160.244 166.585 157.566 168.149 155.781H169.042H169.116H169.191C169.786 155.632 183.782 152.21 184.824 151.912C186.313 151.54 190.11 144.994 190.482 144.175C190.855 143.803 192.865 143.357 193.683 143.357C193.981 143.506 195.545 142.687 198.15 141.051ZM198.969 139.637C198.969 139.637 194.13 142.762 193.386 142.762C192.641 142.762 189.812 143.208 189.514 143.952C189.217 144.696 185.42 151.019 184.378 151.243C183.336 151.466 168.819 155.111 168.819 155.111H167.627C165.915 156.971 163.905 159.872 163.905 163.071C163.905 167.535 166.883 170.734 170.01 171.701C180.209 168.204 187.802 165.006 187.802 165.006C187.802 165.006 204.404 164.336 204.329 153.772C204.329 153.772 205.371 151.763 205.371 149.16C205.371 149.16 208.349 147.672 208.424 146.556C208.498 145.589 207.754 144.324 206.637 144.324C206.488 144.324 206.339 144.324 206.19 144.398C204.85 144.77 193.609 148.49 193.609 148.49C193.609 148.49 194.8 145.142 195.619 144.77C196.364 144.324 199.192 143.283 198.969 139.637Z" fill="black"/>
<path d="M204.925 148.862C202.096 150.127 198.746 151.094 198.746 151.094" stroke="black" stroke-miterlimit="10" stroke-linecap="round" stroke-linejoin="round"/>
<path d="M203.808 153.474L200.309 154.814" stroke="black" stroke-miterlimit="10" stroke-linecap="round" stroke-linejoin="round"/>
<path d="M199.565 118.286C196.512 118.286 193.237 117.17 189.961 115.013C190.036 114.046 190.408 109.657 192.12 108.094C194.056 106.234 193.981 102.068 193.907 100.06C193.907 99.8365 193.907 99.6134 193.907 99.3902C193.907 98.1255 193.907 96.34 193.907 95.5961L204.255 94.7034C204.106 96.6376 203.51 103.928 204.329 106.086C204.701 107.127 205.371 107.722 205.967 108.317C206.786 109.061 207.53 109.805 207.828 111.74C208.126 114.195 207.977 114.864 207.977 114.938V115.013C207.903 115.013 204.85 118.286 199.565 118.286Z" fill="white"/>
<path d="M203.882 95.0753C203.659 97.5303 203.287 104.077 204.031 106.16C204.478 107.276 205.148 107.945 205.744 108.541C206.563 109.285 207.233 109.954 207.456 111.74C207.754 113.823 207.679 114.566 207.605 114.715C207.307 115.013 204.404 117.914 199.565 117.914C196.587 117.914 193.535 116.873 190.333 114.79C190.482 113.079 190.929 109.582 192.343 108.317C194.428 106.309 194.353 102.217 194.279 99.9853C194.279 99.7621 194.279 99.5389 194.279 99.3157C194.279 98.2742 194.279 96.712 194.279 95.8936L203.882 95.0753ZM204.701 94.257L193.535 95.2241C193.535 95.2241 193.535 97.7535 193.535 99.3901C193.535 100.952 193.907 105.862 191.822 107.871C189.738 109.88 189.589 115.31 189.589 115.31C193.46 117.914 196.81 118.807 199.565 118.807C205.074 118.807 208.2 115.31 208.2 115.31C208.2 115.31 208.647 115.236 208.2 111.74C207.754 108.243 205.595 108.392 204.701 106.011C203.882 103.556 204.701 94.257 204.701 94.257Z" fill="black"/>
<path d="M183.559 83.3211C183.559 83.3211 181.325 85.5529 182.219 88.2311C183.187 90.8349 185.494 92.2484 188.174 91.3557C188.174 91.3557 191.003 98.4231 198.299 97.9023C205.595 97.4559 209.764 89.347 209.838 88.6031C209.913 87.8591 213.337 87.0408 213.56 85.0322C213.858 83.0235 213.56 79.527 210.359 80.4198C207.158 81.3125 210.359 80.4198 210.359 80.4198L207.828 68.5167L203.436 65.913L183.708 71.8645L183.559 83.3211Z" fill="white" stroke="black" stroke-miterlimit="10"/>
<path d="M184.229 65.9873C176.784 72.3852 182.74 84.6602 182.74 84.6602C182.74 84.6602 184.973 84.0651 185.494 85.4041C185.941 86.7432 186.313 88.1567 186.313 88.1567L187.653 87.1896C187.653 87.1896 187.653 78.3367 186.834 77.072C186.016 75.7329 185.42 73.2036 186.76 72.8316C188.1 72.4596 193.162 74.0219 196.14 73.2036C199.118 72.3852 202.468 68.5911 204.031 68.6655C205.595 68.7399 207.381 69.707 207.903 72.6828C208.349 75.6585 208.87 79.4526 209.243 80.1966C209.615 80.9405 210.583 80.271 210.583 80.271C210.583 80.271 211.327 71.4181 210.21 69.1863C210.21 69.1863 213.412 69.2607 213.412 68.4423C213.412 67.624 209.243 63.3092 207.977 63.3092C206.637 63.3092 211.253 59.0687 210.806 58.9199C210.359 58.6967 199.639 58.548 198.374 60.3334C197.182 62.1189 198.374 56.7625 197.257 57.5064C196.14 58.2504 193.907 61.003 191.152 62.4164C188.249 63.8299 186.164 64.4251 184.229 65.9873Z" fill="#202020"/>
<path d="M188.919 80.866C188.919 80.866 191.525 77.6671 195.619 79.527" stroke="black" stroke-miterlimit="10" stroke-linecap="round" stroke-linejoin="round"/>
<path d="M206.786 76.7C206.786 76.7 200.309 75.2122 199.044 79.4526C197.778 83.6931 200.086 85.8505 200.756 85.9993C201.426 86.1481 203.213 86.6688 202.766 87.4871C202.319 88.3055 201.649 89.0494 201.649 89.0494" stroke="black" stroke-miterlimit="10" stroke-linecap="round" stroke-linejoin="round"/>
<path d="M200.309 91.1324C200.309 91.1324 195.991 91.5044 194.875 90.6116C193.683 89.7189 194.875 92.3971 194.875 92.3971C194.875 92.3971 196.438 94.5545 198.597 94.3313" stroke="black" stroke-miterlimit="10" stroke-linecap="round" stroke-linejoin="round"/>
<path d="M193.229 85.7989C193.791 85.6734 194.05 84.6939 193.807 83.6113C193.565 82.5287 192.913 81.7529 192.351 81.8785C191.79 82.004 191.531 82.9835 191.773 84.0661C192.015 85.1487 192.667 85.9245 193.229 85.7989Z" fill="#202020"/>
<path d="M203.142 83.638C203.703 83.5125 203.962 82.5331 203.72 81.4504C203.478 80.3678 202.826 79.592 202.264 79.7176C201.702 79.8431 201.443 80.8226 201.686 81.9052C201.928 82.9878 202.58 83.7636 203.142 83.638Z" fill="#202020"/>
<path d="M375.48 186.505C375.48 186.505 371.46 176.834 361.186 176.983L365.727 171.18L360.74 149.829L350.466 163.071L351.955 173.189L352.402 176.388L356.943 207.261L315.774 186.431L315.849 180.479L315.923 177.057L316.295 143.431L291.356 153.028C291.356 153.028 280.04 156.078 278.849 151.615C277.733 147.151 276.542 132.272 276.542 132.272C276.542 132.272 287.708 135.694 293.068 128.478L293.813 132.198C293.813 132.198 313.02 108.02 327.76 108.317C342.5 108.541 363.494 107.35 363.494 107.35C363.717 107.35 377.49 107.425 379.425 121.932C381.361 136.587 385.53 168.204 385.53 168.204C385.53 168.204 386.721 181.298 375.48 186.505Z" fill="#FFD400" stroke="black" stroke-miterlimit="10"/>
<path d="M353.295 182.265L341.384 183.232L344.808 200.194L355.603 198.26L353.295 182.265Z" fill="black" stroke="black" stroke-miterlimit="10"/>
<path d="M332.897 356.495H300.736C300.736 356.495 301.183 346.452 311.382 345.485H331.482C332.301 352.329 332.897 356.495 332.897 356.495Z" fill="black" stroke="black" stroke-miterlimit="10"/>
<path d="M355.007 345.411V339.087H351.285L337.81 259.039L334.832 335.963H331.482V343.476H314.137L315.774 186.357L317.859 183.827L344.064 180.851C344.064 180.851 343.915 196.921 356.645 204.955C358.878 206.294 360.888 205.922 359.772 208.824C358.655 211.799 357.092 209.567 358.581 219.834C359.697 227.72 369.747 304.196 374.289 339.087C374.586 341.319 374.884 343.476 375.108 345.336C376.001 352.18 376.522 356.346 376.522 356.346H344.362C344.362 356.495 344.808 346.452 355.007 345.411Z" fill="#202020" stroke="black" stroke-miterlimit="10"/>
<path d="M355.379 339.161H373.842C373.991 340.277 374.214 341.393 374.438 342.509C374.586 343.476 374.81 344.369 374.884 345.187L355.305 345.411V339.161H355.379Z" fill="white"/>
<path d="M373.544 339.533C373.693 340.575 373.917 341.617 374.065 342.584C374.214 343.402 374.363 344.146 374.438 344.815L355.677 345.039V339.533H373.544ZM374.214 338.79H355.007V345.783L375.331 345.559C375.108 343.625 374.512 341.021 374.214 338.79Z" fill="black"/>
<path d="M376.522 356.495H344.362C344.362 356.495 344.808 346.452 355.007 345.485H375.108C376.001 352.329 376.522 356.495 376.522 356.495Z" fill="black" stroke="black" stroke-miterlimit="10"/>
<path d="M272.373 99.6878C272.373 99.6878 271.703 96.1912 273.34 94.8522C274.978 93.5131 278.477 91.3556 279.147 91.2812C279.817 91.2069 279.147 99.7622 279.147 99.7622L273.564 101.548L272.373 99.6878Z" stroke="black" stroke-miterlimit="10" stroke-linejoin="round"/>
<path d="M283.465 133.091C280.413 133.091 277.733 132.272 276.914 132.049L277.36 112.707C277.36 112.558 277.286 112.409 277.137 112.335C275.797 111.888 273.489 107.871 272.894 105.788C272.447 104.226 270.958 103.259 269.32 102.292C268.576 101.845 267.831 101.324 267.087 100.804C265.896 99.9109 265.821 99.3902 265.821 99.167C265.896 98.8694 266.268 98.5718 266.938 98.3487C267.236 98.2743 267.608 98.1999 267.98 98.1999C269.022 98.1999 270.363 98.5718 271.479 98.8694C272.521 99.167 273.415 99.3902 274.159 99.3902C274.531 99.3902 274.829 99.3158 275.053 99.167C276.393 98.4231 278.7 95.4473 278.328 93.0667C277.956 90.6861 274.978 90.1653 273.861 90.1653H273.713C273.117 90.1653 271.107 90.6861 268.278 91.2812C266.715 91.6532 265.3 91.9508 264.854 92.0252C264.481 92.0252 263.96 91.6532 263.811 91.1325C263.662 90.4629 264.109 89.7934 265.077 89.1982C267.831 87.6359 272.224 86.6688 276.914 86.6688C278.849 86.6688 280.487 86.8176 281.529 87.1152C283.316 87.6359 285.103 93.5131 286.368 102.961C286.666 105.193 292.026 126.544 292.622 128.701C290.835 131.603 287.708 133.091 283.465 133.091Z" fill="white"/>
<path d="M277.063 87.0408C278.924 87.0408 280.636 87.1896 281.604 87.4872C282.795 87.8591 284.656 92.0996 286.145 103.035C286.443 105.267 291.654 125.726 292.324 128.627C290.463 131.305 287.485 132.719 283.465 132.719C280.785 132.719 278.328 132.049 277.286 131.751L277.733 112.707C277.733 112.409 277.509 112.112 277.212 111.963C276.244 111.665 273.861 108.169 273.191 105.639C272.745 103.928 271.181 102.961 269.469 101.92C268.725 101.473 267.98 101.027 267.236 100.432C266.045 99.539 266.119 99.167 266.119 99.0926C266.119 99.0182 266.342 98.795 267.012 98.5719C267.236 98.4975 267.608 98.4231 267.98 98.4231C269.022 98.4231 270.288 98.795 271.405 99.0926C272.447 99.3902 273.415 99.6134 274.159 99.6134C274.606 99.6134 274.904 99.539 275.201 99.3902C276.616 98.5719 279.073 95.4473 278.626 92.9179C278.254 90.5373 275.574 89.719 273.787 89.719C273.713 89.719 273.713 89.719 273.638 89.719C272.968 89.719 271.033 90.1654 268.129 90.8349C266.64 91.2069 265.151 91.5044 264.779 91.5788C264.63 91.5788 264.258 91.3557 264.109 90.9093C263.96 90.2397 264.705 89.6446 265.226 89.347C268.055 87.9335 272.373 87.0408 277.063 87.0408ZM277.063 86.2969C273.191 86.2969 268.278 86.9664 265.002 88.9007C262.248 90.5373 263.886 92.4716 264.928 92.4716H265.002C265.97 92.3228 272.745 90.6117 273.787 90.6117C273.861 90.6117 273.861 90.6117 273.936 90.6117C275.053 90.6117 277.733 91.1325 278.03 93.2155C278.328 95.2985 276.244 98.1999 274.904 98.9438C274.755 99.0182 274.457 99.0926 274.234 99.0926C272.745 99.0926 270.139 97.9023 268.055 97.9023C267.608 97.9023 267.236 97.9767 266.864 98.0511C265.449 98.4975 264.556 99.3902 266.864 101.176C269.171 102.961 272 103.854 272.521 105.937C273.117 108.02 275.425 112.26 276.988 112.781L276.541 132.421C276.541 132.421 279.743 133.537 283.465 133.537C286.889 133.537 290.835 132.57 293.143 128.85C293.143 128.85 287.187 105.267 286.889 102.961C286.592 100.655 284.805 87.636 281.753 86.8176C280.71 86.4457 278.998 86.2969 277.063 86.2969Z" fill="black"/>
<path d="M279.073 102.961C279.073 102.961 277.807 99.8365 274.68 99.3901" stroke="black" stroke-miterlimit="10" stroke-linecap="round" stroke-linejoin="round"/>
<path d="M355.603 203.616C355.231 203.616 354.933 203.542 354.635 203.318C351.732 201.459 345.032 196.325 345.18 189.63C345.18 189.184 345.329 188.96 345.85 188.96C346.669 188.96 348.084 189.556 349.87 190.671C350.094 190.82 350.317 190.895 350.54 190.895C351.657 190.895 352.848 189.332 354.263 187.398C354.858 186.58 355.454 185.761 356.124 185.018C357.985 182.786 359.846 179.438 360.888 177.653C361.112 177.206 361.558 176.909 362.005 176.76L366.397 175.57C366.546 175.495 366.695 175.495 366.844 175.495C367.291 175.495 367.737 175.644 368.11 176.016L375.629 183.009C376.15 183.53 376.373 184.348 376.075 185.018L375.629 185.985C375.554 186.208 375.405 186.431 375.182 186.654L356.868 203.095C356.496 203.393 356.049 203.616 355.603 203.616Z" fill="white"/>
<path d="M366.844 175.793C367.216 175.793 367.589 175.941 367.812 176.165L375.405 183.306C375.852 183.753 376.001 184.348 375.778 184.943L375.405 185.91C375.331 186.133 375.182 186.282 375.033 186.431L356.72 202.946C356.422 203.17 356.124 203.318 355.752 203.318C355.454 203.318 355.231 203.244 354.933 203.095C352.104 201.235 345.553 196.251 345.627 189.704C345.627 189.481 345.702 189.481 345.702 189.481C345.702 189.481 345.776 189.407 345.925 189.407C346.297 189.407 347.339 189.556 349.722 191.043C350.019 191.192 350.317 191.267 350.615 191.267C351.955 191.267 353.072 189.779 354.635 187.621C355.231 186.803 355.826 185.985 356.496 185.241C358.357 183.009 360.293 179.587 361.261 177.801C361.41 177.429 361.782 177.206 362.154 177.057L366.546 175.867C366.546 175.793 366.695 175.793 366.844 175.793ZM366.844 175.049C366.621 175.049 366.472 175.049 366.249 175.123L361.856 176.313C361.261 176.462 360.814 176.834 360.516 177.355C359.697 178.917 357.687 182.414 355.826 184.72C353.593 187.398 351.881 190.448 350.541 190.448C350.392 190.448 350.243 190.374 350.094 190.299C349.126 189.704 347.116 188.588 345.925 188.588C345.329 188.588 344.883 188.886 344.883 189.63C344.808 196.474 351.508 201.682 354.561 203.616C354.933 203.839 355.379 203.988 355.752 203.988C356.273 203.988 356.794 203.765 357.241 203.393L375.554 186.877C375.778 186.654 376.001 186.431 376.075 186.133L376.448 185.166C376.82 184.348 376.596 183.381 375.926 182.711L368.333 175.569C367.886 175.197 367.365 175.049 366.844 175.049Z" fill="black"/>
<path d="M327.835 108.243C327.835 108.243 329.993 117.022 343.84 115.608C357.687 114.195 363.569 107.276 363.569 107.276C363.569 107.276 346.52 108.615 348.903 89.719C348.903 89.719 356.72 89.8678 354.114 83.1724C351.508 76.4769 347.637 82.5772 347.637 82.5772L337.438 102.812C337.364 102.887 337.512 109.359 327.835 108.243Z" fill="white" stroke="black" stroke-miterlimit="10"/>
<path d="M322.623 75.361C322.623 75.361 325.303 70.451 324.931 70.0046C324.559 69.5583 318.157 67.9216 323.666 63.7555C329.175 59.5895 348.53 52.5221 355.826 66.2849C356.571 69.0375 358.655 77.3696 354.039 83.2467C354.039 83.2467 349.722 81.0149 347.637 84.5858C345.553 88.1567 345.999 90.1654 345.999 92.3228C345.999 94.4802 345.18 101.696 337.289 102.961C329.398 104.226 321.73 101.845 321.283 96.34C320.911 90.8349 323.666 88.7519 324.559 87.8591C324.633 87.7848 326.792 80.0478 322.623 75.361Z" fill="black"/>
<path d="M330.068 91.802C327.09 91.802 326.569 89.9422 326.643 89.5702C326.718 89.1982 327.835 89.1238 328.356 89.5702C328.802 90.0166 331.036 89.9422 331.631 89.719C332.227 89.4958 332.897 89.347 332.897 89.9422C332.971 90.5373 332.748 91.7276 330.068 91.802Z" fill="white"/>
<path d="M326.346 70.0046C326.346 70.0046 336.917 73.1292 341.533 70.8974C341.533 70.8974 342.277 77.0721 346.074 77.0721C346.074 77.0721 341.16 81.7589 341.16 84.9578C341.16 88.1567 341.458 91.1325 339.969 91.7276C338.406 92.3228 333.269 84.5114 328.132 86.892C328.132 86.892 330.961 75.6586 324.112 75.0634L326.346 70.0046Z" fill="white"/>
<path d="M324.261 75.5841C324.261 75.5841 327.537 76.6256 327.686 81.1636C327.835 85.7017 327.313 87.2639 327.313 87.2639C327.313 87.2639 325.973 87.2639 325.303 87.6359C325.006 87.7847 327.239 80.1965 324.261 76.7744C323.666 76.0305 323.74 75.6585 323.74 75.6585L324.261 75.5841Z" fill="white"/>
<path d="M331.855 75.5842C331.855 75.5842 338.331 73.6499 340.788 78.1879" stroke="black" stroke-miterlimit="10" stroke-linecap="round" stroke-linejoin="round"/>
<path d="M335.651 82.6516C336.309 82.6516 336.843 81.6524 336.843 80.4198C336.843 79.1872 336.309 78.188 335.651 78.188C334.994 78.188 334.46 79.1872 334.46 80.4198C334.46 81.6524 334.994 82.6516 335.651 82.6516Z" fill="black"/>
<path d="M327.313 82.354C327.971 82.354 328.505 81.3548 328.505 80.1222C328.505 78.8896 327.971 77.8904 327.313 77.8904C326.656 77.8904 326.122 78.8896 326.122 80.1222C326.122 81.3548 326.656 82.354 327.313 82.354Z" fill="black"/>
<path d="M185.494 207.484L191.525 211.65L184.75 325.175" stroke="black" stroke-miterlimit="10" stroke-linecap="round" stroke-linejoin="round"/>
<path d="M330.068 260.081V280.688C318.752 286.268 288.602 279.646 288.602 279.646L265.077 275.555L263.588 337.525L263.514 340.798L263.29 348.907L263.067 357.388H228.971C229.12 353.52 233.661 350.544 237.532 348.907C239.021 348.312 240.361 347.866 241.329 347.717C244.828 347.047 245.498 340.873 245.498 340.873V340.724L245.125 337.45L238.425 279.572L224.653 291.475L223.164 288.574L218.474 292.665L218.399 292.74L212.667 297.65L205.744 303.601L183.633 277.712C186.313 274.662 191.301 275.629 195.917 277.489C201.202 279.646 205.893 282.994 205.893 282.994L209.317 279.2L209.54 278.903L214.305 273.546L255.399 227.571L330.068 260.081Z" fill="#191919"/>
<path d="M214.379 273.621L223.238 288.723L218.399 292.814L209.615 278.977L214.379 273.621Z" fill="white" stroke="black" stroke-miterlimit="10"/>
<path d="M224.727 291.549L224.653 291.624L223.238 288.723L224.727 291.549Z" stroke="black" stroke-miterlimit="10"/>
<path d="M245.87 340.352L245.572 337.822H263.29L263.216 340.352H245.87Z" fill="white"/>
<path d="M262.844 338.194L262.769 339.98H246.093L245.87 338.194H262.844ZM263.662 337.45H245.125L245.498 340.724H263.588L263.662 337.45Z" fill="black"/>
<path d="M229.417 357.016C229.864 352.924 235.596 350.172 237.606 349.354C240.882 350.172 246.168 351.957 246.168 354.561C246.168 354.784 246.317 354.933 246.54 354.933H256.888C257.037 354.933 257.186 354.859 257.26 354.71C257.26 354.635 259.345 350.246 263.067 349.354L262.844 357.016H229.417Z" fill="white"/>
<path d="M237.606 349.725C242.743 351.065 245.795 352.85 245.795 354.561C245.795 355.007 246.093 355.305 246.54 355.305H256.888C257.186 355.305 257.409 355.156 257.558 354.859C257.558 354.784 259.419 350.916 262.62 349.8L262.471 356.644H229.864C230.609 353.073 235.671 350.544 237.606 349.725ZM263.365 348.907C259.196 349.577 256.888 354.635 256.888 354.635H246.54C246.54 351.808 241.254 349.949 237.606 348.982C233.735 350.618 229.194 353.594 229.045 357.462H263.216L263.365 348.907Z" fill="black"/>
<path d="M212.22 298.171L205.669 303.601L183.41 278.084C193.013 273.249 199.118 286.937 196.959 289.318L203.734 297.055C203.734 297.055 209.019 295.492 212.22 298.171Z" fill="white" stroke="black" stroke-width="0.9958" stroke-miterlimit="10" stroke-linejoin="round"/>
<path d="M292.92 240.441C292.25 239.697 290.761 225.116 291.356 224.223" stroke="black" stroke-miterlimit="10"/>
<path d="M293.366 356.495C296.409 356.495 298.875 354.03 298.875 350.99C298.875 347.95 296.409 345.485 293.366 345.485C290.324 345.485 287.857 347.95 287.857 350.99C287.857 354.03 290.324 356.495 293.366 356.495Z" fill="white" stroke="black" stroke-miterlimit="10" stroke-linejoin="round"/>
<path d="M306.841 356.495C309.883 356.495 312.35 354.03 312.35 350.99C312.35 347.95 309.883 345.485 306.841 345.485C303.798 345.485 301.332 347.95 301.332 350.99C301.332 354.03 303.798 356.495 306.841 356.495Z" fill="white" stroke="black" stroke-miterlimit="10" stroke-linejoin="round"/>
<path d="M320.241 356.495C323.284 356.495 325.75 354.03 325.75 350.99C325.75 347.95 323.284 345.485 320.241 345.485C317.199 345.485 314.732 347.95 314.732 350.99C314.732 354.03 317.199 356.495 320.241 356.495Z" fill="white" stroke="black" stroke-miterlimit="10" stroke-linejoin="round"/>
<path d="M333.641 356.495C336.684 356.495 339.15 354.03 339.15 350.99C339.15 347.95 336.684 345.485 333.641 345.485C330.599 345.485 328.132 347.95 328.132 350.99C328.132 354.03 330.599 356.495 333.641 356.495Z" fill="white" stroke="black" stroke-miterlimit="10" stroke-linejoin="round"/>
<path d="M279.296 294.972L284.582 298.468H308.032V341.17H290.091V346.452H336.694V341.17H318.454V297.947H341.458L346.074 294.972H279.296Z" fill="#424242"/>
<path d="M279.668 294.6V288.351C279.668 284.036 283.167 280.539 287.485 280.539H337.885C342.203 280.539 345.702 284.036 345.702 288.351V294.6H279.668Z" fill="white"/>
<path d="M337.885 280.911C341.979 280.911 345.329 284.259 345.329 288.351V294.228H279.966V288.351C279.966 284.259 283.316 280.911 287.411 280.911H337.885ZM337.885 280.167H287.485C282.944 280.167 279.296 283.813 279.296 288.351V294.972H346.148V288.351C346.074 283.887 342.426 280.167 337.885 280.167Z" fill="black"/>
<path d="M265.375 208.451C260.015 208.451 243.711 209.939 257.186 190.374C257.037 187.696 255.846 179.661 262.025 176.165C268.204 172.668 265.896 170.436 265.375 168.8C264.854 167.089 263.216 142.018 296.27 143.506C299.62 144.175 312.573 146.556 311.382 165.303C310.191 184.05 310.191 190.299 310.191 190.299L265.375 208.451Z" fill="black"/>
<path d="M223.089 200.64C223.015 200.64 211.774 198.78 210.508 193.87V193.796L210.434 193.722C210.434 193.722 209.54 192.531 209.615 191.49C209.689 191.043 209.913 190.597 210.359 190.299L210.434 190.225V190.151C210.434 190.151 211.104 188.216 212.369 188.216C212.89 188.216 215.198 188.514 217.804 188.886C222.494 189.556 228.226 190.374 230.609 190.374C230.981 190.374 231.279 190.374 231.427 190.299C232.321 190.299 233.289 195.73 233.586 202.202L223.089 200.64Z" fill="white"/>
<path d="M212.444 188.588C212.89 188.588 215.273 188.96 217.804 189.258C222.494 189.928 228.301 190.746 230.683 190.746C231.055 190.746 231.278 190.746 231.502 190.671C232.246 191.341 233.065 196.251 233.289 201.756L223.089 200.194C223.089 200.194 220.261 199.747 217.283 198.632C214.677 197.664 211.402 196.028 210.806 193.647L210.731 193.498L210.657 193.35C210.434 193.052 209.838 192.159 209.913 191.341C209.987 190.969 210.136 190.671 210.508 190.374L210.657 190.225L210.731 190.002C211.029 189.779 211.625 188.588 212.444 188.588ZM212.444 187.844C210.88 187.844 210.136 190.002 210.136 190.002C208.126 191.564 210.136 194.019 210.136 194.019C211.55 199.227 223.015 201.087 223.015 201.087L234.107 202.798C234.107 202.798 233.661 190.076 231.576 190.076H231.502C231.353 190.151 231.055 190.151 230.757 190.151C226.961 190.076 213.858 187.844 212.444 187.844Z" fill="black"/>
<path d="M221.228 192.829L210.806 190.225" stroke="black" stroke-miterlimit="10" stroke-linecap="round" stroke-linejoin="round"/>
<path d="M210.508 194.242C210.508 194.242 210.657 191.713 211.55 192.234C212.667 192.829 213.784 193.945 214.305 194.168C215.496 194.689 217.506 195.953 218.102 196.177" stroke="black" stroke-miterlimit="10" stroke-linecap="round" stroke-linejoin="round"/>
<path d="M234.256 204.286C232.767 203.839 225.472 201.459 224.653 201.459C224.578 201.459 220.484 201.235 216.464 195.73C216.315 195.507 216.24 195.284 216.315 195.061C216.389 194.838 216.464 194.614 216.687 194.466C216.836 194.317 217.059 194.317 217.208 194.317C217.432 194.317 217.655 194.391 217.804 194.54C219.963 196.549 221.452 197.59 222.271 197.664C222.345 197.664 222.494 197.664 222.643 197.664C223.983 197.664 226.514 197.441 227.78 196.549C228.896 195.73 230.46 195.135 230.46 195.135L230.757 194.986L230.683 194.689C230.683 194.689 230.013 191.936 230.162 190.597C230.385 189.035 229.566 187.473 228.971 186.877C228.598 186.505 227.78 184.943 227.78 183.53C227.78 182.86 228.003 182.339 228.375 181.893C228.524 181.819 228.896 181.67 229.194 181.67C229.343 181.67 229.343 181.744 229.343 181.744C229.641 182.488 231.725 186.133 232.544 187.398C232.842 187.77 233.661 188.812 234.777 190.151C237.309 193.201 241.105 197.739 241.775 199.45C242.445 201.235 240.51 204.732 239.542 206.22L234.256 204.286Z" fill="white"/>
<path d="M229.12 181.967C229.566 183.009 231.502 186.282 232.321 187.547C232.619 187.993 233.437 188.96 234.554 190.374C236.936 193.201 240.882 197.962 241.478 199.599C241.999 201.012 240.584 203.988 239.393 205.773L234.331 203.988C231.651 203.095 225.472 201.161 224.653 201.161C223.834 201.161 220.186 200.194 216.762 195.581C216.687 195.433 216.613 195.284 216.687 195.209C216.687 195.061 216.762 194.912 216.91 194.837C216.985 194.763 217.134 194.763 217.208 194.763C217.357 194.763 217.506 194.837 217.58 194.912C220.931 198.036 221.973 198.111 222.271 198.111C222.419 198.111 222.494 198.111 222.643 198.111C223.983 198.111 226.663 197.888 228.003 196.92C229.12 196.102 230.608 195.581 230.608 195.581L231.204 195.358L231.055 194.763C230.906 194.019 230.46 191.862 230.534 190.82C230.757 189.258 230.013 187.547 229.194 186.729C228.971 186.505 228.077 185.017 228.152 183.678C228.152 183.083 228.301 182.711 228.598 182.339C228.747 182.042 228.971 181.967 229.12 181.967ZM229.194 181.223C228.747 181.223 228.152 181.521 228.152 181.521C226.44 183.158 228.077 186.431 228.673 187.026C229.268 187.621 229.938 189.109 229.79 190.448C229.641 191.862 230.311 194.689 230.311 194.689C230.311 194.689 228.747 195.284 227.556 196.177C226.44 196.995 224.057 197.218 222.643 197.218C222.494 197.218 222.419 197.218 222.271 197.218C221.303 197.218 219.144 195.284 218.027 194.242C217.804 194.019 217.432 193.87 217.134 193.87C216.836 193.87 216.613 193.945 216.389 194.094C215.794 194.54 215.719 195.358 216.092 195.879C219.888 201.012 223.834 201.756 224.578 201.756C225.323 201.756 234.033 204.583 234.033 204.583L239.616 206.592C239.616 206.592 243.041 201.756 242.073 199.227C241.105 196.697 233.661 188.365 232.767 187.026C231.874 185.761 229.864 182.116 229.566 181.447C229.641 181.298 229.417 181.223 229.194 181.223Z" fill="black"/>
<path d="M234.107 204.657C234.107 204.657 240.435 203.765 242.148 199.301L256.813 214.18L266.194 200.863C266.194 200.863 273.117 190.597 279.445 190.448C285.847 190.299 314.062 183.827 314.062 183.827C314.062 183.827 316.147 183.232 323.963 188.216C331.78 193.201 347.265 209.642 347.265 209.642C347.265 209.642 351.359 218.718 344.659 221.768H322.474L330.068 260.081L288.676 242.078C288.676 242.078 291.728 230.621 290.761 224.893C290.761 224.893 281.083 227.794 277.807 218.346C277.807 218.346 263.737 231.662 261.057 233.002C258.302 234.341 251.825 236.2 247.061 227.571C242.296 219.09 234.107 204.657 234.107 204.657Z" fill="#FFD400" stroke="black" stroke-miterlimit="10"/>
<path d="M298.577 239.995C297.907 239.846 295.376 238.655 295.227 228.389H294.483L294.111 239.846C293.59 239.548 292.622 238.879 292.473 236.796C292.25 233.745 291.803 225.041 291.728 224.149C292.101 223.107 297.163 210.237 309.446 209.716C310.191 210.535 314.211 215.073 311.159 220.652L298.577 239.995Z" fill="white"/>
<path d="M309.223 210.163C310.116 211.204 313.541 215.445 310.787 220.503L298.354 239.623C297.386 239.176 295.674 236.721 295.525 228.464H294.036L293.664 239.251C293.292 238.879 292.845 238.135 292.696 236.87C292.473 233.894 292.026 225.562 291.952 224.297C292.622 222.884 297.535 210.832 309.223 210.163ZM309.595 209.419C296.344 209.865 291.356 224.149 291.356 224.149C291.356 224.149 291.803 233.671 292.101 236.87C292.398 240.069 294.483 240.367 294.483 240.367L294.855 228.389C295.004 239.995 298.28 240.367 298.726 240.367H298.801L311.457 220.801C314.881 214.626 309.595 209.419 309.595 209.419Z" fill="black"/>
<path d="M309.595 209.419L331.482 208.526" stroke="black" stroke-miterlimit="10"/>
<path d="M312.797 203.69C312.797 203.69 321.06 206.071 322.847 208.823" stroke="black" stroke-miterlimit="10"/>
<path d="M277.137 204.881C277.137 204.881 279.743 205.55 281.678 208.005C281.678 208.005 275.797 211.204 277.733 218.495" stroke="black" stroke-miterlimit="10"/>
<path d="M338.555 262.238H308.776C303.267 262.238 298.801 257.775 298.801 252.27V230.918C298.801 225.413 303.267 220.95 308.776 220.95H338.555C344.064 220.95 348.53 225.413 348.53 230.918V252.27C348.53 257.775 344.064 262.238 338.555 262.238Z" fill="white" stroke="black" stroke-miterlimit="10"/>
<path d="M333.046 257.998H327.09C322.847 257.998 319.348 254.501 319.348 250.261C319.348 246.02 322.847 242.524 327.09 242.524H333.046C337.289 242.524 340.788 246.02 340.788 250.261C340.788 254.576 337.364 257.998 333.046 257.998Z" fill="#424242"/>
<path d="M332.897 292.145C331.036 292.145 329.472 290.582 329.472 288.722V251.897C329.472 250.038 331.036 248.475 332.897 248.475C334.758 248.475 336.321 250.038 336.321 251.897V288.722C336.321 290.582 334.758 292.145 332.897 292.145Z" fill="white"/>
<path d="M332.897 248.847C334.609 248.847 335.949 250.186 335.949 251.897V288.722C335.949 290.434 334.609 291.773 332.897 291.773C331.185 291.773 329.845 290.434 329.845 288.722V251.897C329.77 250.186 331.185 248.847 332.897 248.847ZM332.897 248.103C330.812 248.103 329.1 249.814 329.1 251.897V288.722C329.1 290.805 330.812 292.517 332.897 292.517C334.981 292.517 336.694 290.805 336.694 288.722V251.897C336.694 249.814 334.981 248.103 332.897 248.103Z" fill="black"/>
<path d="M286.964 198.855C284.731 198.855 281.753 198.483 280.338 196.549C279.37 195.284 279.222 193.498 279.892 191.192C281.157 191.118 286.443 190.746 290.165 188.291C290.314 188.216 290.314 188.068 290.314 187.919L288.899 178.024C288.899 177.95 288.825 177.801 288.751 177.801C288.676 177.727 288.602 177.727 288.527 177.727H288.453C288.453 177.727 287.485 177.95 286.145 177.95C284.507 177.95 282.199 177.578 280.487 175.793C278.7 173.858 277.882 170.734 278.105 166.493C278.477 160.691 280.189 155.334 290.463 155.334C291.058 155.334 291.728 155.334 292.398 155.409C292.25 157.269 291.803 165.006 294.706 168.204C295.6 169.172 296.642 169.618 297.907 169.618H299.396C299.62 169.618 300.513 169.692 300.513 170.734V170.957C300.513 171.627 300.513 172.445 299.992 172.966C299.322 173.635 298.056 173.933 296.121 173.933C295.749 173.933 295.302 173.933 294.855 173.858C294.781 173.858 294.632 173.933 294.557 174.007C294.483 174.082 294.408 174.23 294.483 174.305C294.781 176.909 295.748 185.464 296.716 186.357C297.237 186.877 297.982 187.101 298.875 187.101C299.694 187.101 300.662 186.877 301.63 186.431C301.779 186.357 302.002 186.208 302.225 186.133C303.789 185.315 305.948 184.199 311.754 184.199C312.201 184.199 312.722 184.199 313.169 184.199C310.935 186.357 303.268 193.573 299.322 195.879C297.312 197.069 291.803 198.855 286.964 198.855Z" fill="white"/>
<path d="M290.537 155.632C291.058 155.632 291.58 155.632 292.101 155.706C291.952 158.087 291.728 165.229 294.557 168.428C295.525 169.469 296.642 169.99 298.056 169.99H299.545C299.917 169.99 300.29 170.139 300.29 170.734V170.957C300.29 171.627 300.29 172.222 299.843 172.742C299.247 173.338 298.056 173.635 296.195 173.635C295.823 173.635 295.376 173.635 295.004 173.561C295.004 173.561 295.004 173.561 294.93 173.561C294.706 173.561 294.557 173.635 294.408 173.784C294.26 173.933 294.185 174.156 294.185 174.379C294.781 179.512 295.6 185.836 296.493 186.654C297.089 187.175 297.907 187.472 298.95 187.472C299.843 187.472 300.885 187.249 301.853 186.728C302.076 186.654 302.225 186.505 302.449 186.431C304.012 185.613 306.096 184.571 311.754 184.571C311.903 184.571 312.127 184.571 312.275 184.571C309.446 187.249 302.746 193.424 299.173 195.581C297.089 196.772 291.654 198.483 286.889 198.483C284.731 198.483 281.902 198.111 280.562 196.325C279.743 195.209 279.594 193.573 280.115 191.564C281.753 191.49 286.741 190.969 290.314 188.588C290.537 188.44 290.686 188.142 290.612 187.844L289.197 177.95C289.197 177.727 289.048 177.578 288.899 177.429C288.751 177.355 288.602 177.28 288.453 177.28C288.378 177.28 288.304 177.28 288.304 177.28C288.304 177.28 287.411 177.504 286.145 177.504C284.582 177.504 282.348 177.132 280.785 175.421C279.073 173.561 278.254 170.511 278.552 166.345C278.924 159.947 281.083 155.632 290.537 155.632ZM290.537 154.888C280.264 154.888 278.179 160.17 277.807 166.419C277.212 176.834 282.869 178.322 286.145 178.322C287.485 178.322 288.527 178.099 288.527 178.099L289.942 187.993C285.773 190.746 279.594 190.82 279.594 190.82C277.658 197.218 281.827 199.227 286.964 199.227C291.728 199.227 297.312 197.516 299.62 196.177C304.384 193.424 314.137 183.827 314.137 183.827C313.318 183.753 312.499 183.753 311.829 183.753C305.278 183.753 303.268 185.166 301.63 185.985C300.736 186.431 299.843 186.654 299.024 186.654C298.205 186.654 297.535 186.431 297.089 185.985C296.195 185.166 295.004 174.156 295.004 174.156C295.451 174.156 295.897 174.23 296.27 174.23C301.332 174.23 301.109 172.073 301.109 170.659C301.109 169.172 299.62 169.172 299.62 169.172H298.131C291.505 169.172 292.994 154.962 292.994 154.962C292.026 154.888 291.282 154.888 290.537 154.888Z" fill="black"/>
<path d="M277.882 165.377C277.882 165.377 281.306 165.749 282.497 163.518C283.688 161.36 282.497 159.054 280.189 158.98" stroke="black" stroke-miterlimit="10" stroke-linecap="round" stroke-linejoin="round"/>
<path d="M286.889 161.658C286.889 161.658 290.91 159.947 293.068 162.997" stroke="black" stroke-miterlimit="10" stroke-linecap="round" stroke-linejoin="round"/>
<path d="M280.413 171.18C280.413 171.18 283.316 172.445 285.549 171.18C285.549 171.18 284.656 174.007 281.976 174.305" stroke="black" stroke-miterlimit="10" stroke-linecap="round" stroke-linejoin="round"/>
<path d="M288.527 178.024C288.527 178.024 290.612 178.024 292.25 176.462" stroke="black" stroke-miterlimit="10" stroke-linecap="round" stroke-linejoin="round"/>
<path d="M289.87 166.826C290.288 165.933 290.114 164.969 289.481 164.673C288.848 164.377 287.995 164.861 287.577 165.754C287.159 166.647 287.334 167.611 287.967 167.907C288.6 168.203 289.452 167.719 289.87 166.826Z" fill="black"/>
<path d="M282.285 163.217C282.616 162.51 282.462 161.739 281.94 161.495C281.419 161.252 280.728 161.627 280.397 162.334C280.066 163.041 280.22 163.812 280.742 164.056C281.263 164.3 281.954 163.924 282.285 163.217Z" fill="black"/>
<path d="M61.1701 356.495H97.6485C97.6485 356.495 99.5841 346.675 84.9183 345.559V265.66H108.071L112.538 257.328H45.9087L53.8 265.214H74.5703V345.634C74.5703 345.708 61.5423 344.741 61.1701 356.495Z" fill="#191919"/>
<path d="M70.9969 182.191H56.48C56.48 182.191 44.8665 182.934 42.6331 199.45C40.3997 215.965 39.8042 249.071 39.8042 249.071C39.8042 249.071 39.9531 257.551 45.9087 257.998H97.6485L70.9969 182.191Z" fill="#FFD400"/>
<path d="M59.7556 237.242H90.3528" stroke="black" stroke-miterlimit="10" stroke-linecap="round" stroke-linejoin="round"/>
<path d="M165.245 335.665C164.575 335.814 163.905 336.037 163.161 336.26C163.161 336.26 155.716 338.418 153.557 332.168C153.185 331.127 152.738 329.862 152.143 328.598C149.76 322.72 146.187 315.43 145.74 314.611C145.74 314.537 145.666 314.537 145.666 314.537L147.229 313.793L147.08 313.347L142.614 302.932L141.348 303.452V303.378L124.3 258.891H126.459C126.459 258.891 126.459 259.039 126.533 259.337C126.608 259.709 126.757 260.304 126.98 260.825C127.203 261.42 127.501 261.866 127.948 261.941C128.99 262.089 134.648 260.899 134.648 260.899C134.648 260.899 134.276 259.858 134.052 258.072C133.829 256.287 150.058 256.287 152.738 255.766C155.418 255.245 171.052 248.178 165.394 238.06C159.736 227.943 147.825 211.874 117.451 202.798C117.451 202.798 108.89 185.761 106.21 183.158C103.53 183.158 83.2805 183.158 83.2805 183.158L74.4959 200.64L72.188 214.329C72.188 214.329 74.1236 225.339 81.5682 239.399C89.0128 253.46 121.397 312.38 121.397 312.38L119.461 313.272C119.461 313.272 117.451 314.016 118.717 317.141C119.982 320.191 121.694 323.539 121.694 323.539C121.694 323.539 123.481 325.175 125.193 324.283C126.906 323.39 126.831 323.39 126.831 323.39L126.906 323.464L127.278 324.134L134.35 337.004L140.901 348.907L146.113 358.429L169.786 347.791C169.786 347.791 177.231 341.914 177.826 337.674C177.826 337.45 172.169 334.103 165.245 335.665ZM117.228 240.962L112.463 228.612L132.936 237.986L129.735 238.655C129.735 238.655 129.437 237.688 128.767 237.763C128.097 237.837 121.248 238.655 121.248 238.655C121.248 238.655 120.876 239.771 121.024 240.441C121.024 240.515 121.024 240.515 121.024 240.59C120.727 240.962 118.791 240.962 117.823 240.962C117.451 240.962 117.228 240.962 117.228 240.962Z" fill="#202020" stroke="#191919" stroke-miterlimit="10"/>
<path d="M124.077 324.06C123.109 324.06 122.216 323.316 121.992 323.167C121.769 322.72 120.28 319.67 119.089 316.843C118.642 315.802 118.568 314.983 118.866 314.314C119.089 313.719 119.61 313.496 119.61 313.496L121.546 312.603C121.546 312.603 121.62 312.603 121.62 312.528L141.348 303.601H141.423H141.497L142.465 303.229L146.783 313.421L145.592 314.016C145.517 314.091 145.443 314.091 145.443 314.24L127.352 323.464L127.129 323.092C127.055 322.944 126.906 322.869 126.831 322.869C126.757 322.869 126.682 322.869 126.682 322.944L125.045 323.836C124.672 323.985 124.374 324.06 124.077 324.06Z" fill="white"/>
<path d="M142.316 303.75L146.41 313.347L145.517 313.793C145.368 313.867 145.294 313.942 145.219 314.016L127.576 323.018L127.501 322.944C127.352 322.72 127.129 322.572 126.831 322.572C126.682 322.572 126.608 322.572 126.459 322.646L124.821 323.539C124.598 323.687 124.374 323.687 124.077 323.687C123.258 323.687 122.513 323.167 122.29 322.944C121.992 322.274 120.578 319.373 119.461 316.694C118.493 314.463 119.684 313.868 119.759 313.868C119.759 313.868 119.759 313.868 119.833 313.868L121.769 312.975H121.843L141.497 304.122C141.571 304.122 141.646 304.122 141.795 304.048L142.316 303.75ZM142.688 302.783L141.423 303.304V303.229L121.471 312.231L119.536 313.124C119.536 313.124 117.525 313.868 118.791 316.992C120.057 320.042 121.769 323.39 121.769 323.39C121.769 323.39 122.886 324.431 124.151 324.431C124.523 324.431 124.821 324.357 125.193 324.134C126.831 323.241 126.831 323.241 126.831 323.241L127.203 323.985L145.815 314.537C145.815 314.463 145.74 314.463 145.74 314.463L147.304 313.719L142.688 302.783Z" fill="black"/>
<path d="M128.246 261.494C128.171 261.494 128.171 261.494 128.097 261.494C127.65 261.42 127.129 260.006 126.906 258.742L121.322 240.366C121.248 239.994 121.322 239.399 121.471 239.027C122.662 238.879 128.171 238.209 128.767 238.135C129.065 238.135 129.288 238.655 129.362 238.804L133.755 258.147C133.904 259.262 134.127 260.155 134.276 260.602C133.01 260.75 129.362 261.494 128.246 261.494Z" fill="white"/>
<path d="M128.767 238.507C128.841 238.581 128.916 238.73 128.99 238.879L133.382 258.147C133.531 259.039 133.68 259.783 133.829 260.23C132.117 260.527 129.213 261.122 128.32 261.122H128.246C127.948 260.899 127.501 259.783 127.352 258.667V258.593L121.769 240.292C121.694 240.069 121.769 239.697 121.843 239.325C123.928 239.102 128.171 238.581 128.767 238.507ZM128.767 237.763C128.022 237.837 121.173 238.655 121.173 238.655C121.173 238.655 120.801 239.771 120.95 240.441L126.533 258.742C126.533 258.742 126.98 261.718 128.022 261.792C128.097 261.792 128.171 261.792 128.246 261.792C129.66 261.792 134.722 260.75 134.722 260.75C134.722 260.75 134.35 259.709 134.127 257.923L129.735 238.581C129.66 238.655 129.437 237.763 128.767 237.763Z" fill="black"/>
<path d="M121.173 240.962L126.385 258.295L124.449 258.37L117.823 241.334C118.791 241.408 120.876 241.408 121.173 240.962Z" fill="white"/>
<path d="M127.129 260.75C126.906 260.23 126.757 259.634 126.682 259.262L127.129 260.75Z" stroke="black" stroke-miterlimit="10"/>
<path d="M177.826 337.45C177.156 341.765 169.786 347.568 169.786 347.568L146.113 358.206L140.901 348.684L134.35 336.781L127.278 323.911L126.906 323.241L147.155 313.124L147.304 313.57L145.74 314.314C145.74 314.314 145.74 314.314 145.815 314.388C146.187 315.207 149.76 322.497 152.217 328.374C152.738 329.639 153.259 330.904 153.632 331.945C155.791 338.194 163.235 336.037 163.235 336.037C163.905 335.814 164.65 335.591 165.32 335.442C172.169 334.103 177.826 337.45 177.826 337.45Z" fill="white" stroke="black" stroke-miterlimit="10"/>
<path d="M158.992 346.824L146.932 353.073C146.932 353.073 144.028 348.535 140.827 348.684L134.276 336.781L152.217 328.449C152.738 329.713 153.259 330.978 153.632 332.02C155.791 338.269 163.235 336.111 163.235 336.111C163.905 335.888 164.65 335.665 165.32 335.516C165.096 335.814 157.875 341.84 158.992 346.824Z" fill="black"/>
<path d="M111.421 208.526C111.421 208.526 109.411 213.064 106.731 213.882L141.423 303.378" stroke="black" stroke-miterlimit="10" stroke-linejoin="round"/>
<path d="M119.759 201.682L119.387 201.458L117.153 200.938C117.153 200.938 110.602 189.481 110.304 189.481C110.081 189.481 110.528 184.422 110.453 183.083C110.304 181.744 108.666 179.735 108.666 179.735L114.473 149.532C114.473 149.532 115.367 144.845 109.858 141.199C109.858 141.199 118.419 140.976 121.546 145.142C124.672 149.308 125.342 153.846 125.491 163.071C125.64 172.296 125.491 186.133 125.491 186.133L130.107 191.787" fill="#FFD400"/>
<path d="M119.759 201.682L119.387 201.458L117.153 200.938C117.153 200.938 110.602 189.481 110.304 189.481C110.081 189.481 110.528 184.422 110.453 183.083C110.304 181.744 108.666 179.735 108.666 179.735L114.473 149.532C114.473 149.532 115.367 144.845 109.858 141.199C109.858 141.199 118.419 140.976 121.546 145.142C124.672 149.308 125.342 153.846 125.491 163.071C125.64 172.296 125.491 186.133 125.491 186.133L130.107 191.787" stroke="black" stroke-miterlimit="10"/>
<path d="M153.483 226.529C152.664 227.72 151.026 226.157 150.877 225.711C150.728 225.265 149.165 226.678 148.197 225.265C147.229 223.851 146.262 219.759 145.368 219.164C144.475 218.495 140.008 212.469 139.413 213.064C138.742 213.659 138.668 214.626 139.264 215.742C139.859 216.858 141.125 219.685 140.083 220.503C139.04 221.322 137.03 217.304 135.839 216.263C134.648 215.147 132.191 211.874 132.861 208.972L119.833 201.682C122.439 198.334 126.385 193.796 130.256 191.862L144.103 209.047C144.103 209.047 153.111 213.138 154.227 215.37C155.269 217.528 154.302 225.339 153.483 226.529Z" fill="white" stroke="black" stroke-miterlimit="10" stroke-linejoin="round"/>
<path d="M84.0249 182.711L101.073 151.912C102.339 152.582 106.954 154.888 108.592 155.409C108.592 155.409 108.666 155.409 108.741 155.409H108.815C112.761 154.218 114.027 151.689 114.399 150.201C115.813 153.177 119.61 161.137 120.727 162.997C121.694 166.94 121.322 169.99 119.61 172.147C117.004 175.495 112.017 175.569 111.421 175.569C111.272 175.569 111.123 175.644 111.049 175.718L106.135 182.711H84.0249Z" fill="white"/>
<path d="M114.473 151.094C116.111 154.516 119.312 161.211 120.429 162.997C121.322 166.791 120.95 169.692 119.312 171.775C116.781 174.974 111.942 175.123 111.421 175.123H111.346C111.123 175.123 110.9 175.272 110.751 175.421L105.912 182.265H84.6205L101.222 152.284C102.86 153.102 106.954 155.111 108.443 155.632C108.518 155.632 108.592 155.632 108.666 155.632C108.741 155.632 108.815 155.632 108.89 155.632C112.091 154.665 113.58 152.879 114.25 151.54C114.324 151.466 114.399 151.317 114.473 151.094ZM114.175 148.862C114.175 148.862 114.324 153.326 108.666 155.037C106.805 154.442 100.924 151.391 100.924 151.391L83.4294 183.083H106.359L111.421 175.941C111.421 175.941 111.421 175.941 111.495 175.941C112.463 175.941 124.3 175.718 121.173 162.848C119.759 160.616 114.175 148.862 114.175 148.862Z" fill="black"/>
<path d="M100.924 151.391L78.9626 195.433C78.9626 195.433 78.0693 198.855 76.9526 203.393C74.6448 212.543 71.0714 226.306 70.6991 226.976C70.1036 228.017 74.4959 228.835 74.4214 231.737C74.347 234.713 74.6448 237.391 70.9969 237.539C67.4235 237.614 62.5101 237.539 62.5101 237.539C62.5101 237.539 60.7234 234.192 64.669 234.043H58.8623C58.8623 234.043 58.9367 237.242 58.49 237.911C58.0434 238.507 55.2144 238.655 54.7678 237.911C54.7678 237.911 51.4177 238.73 51.0455 236.424C51.0455 236.424 47.1743 237.688 46.8765 236.052C46.8765 236.052 46.281 228.463 51.7155 228.017C51.7155 228.017 52.6088 226.752 54.7678 227.273H59.6067C59.6067 227.273 62.2123 205.253 62.2123 203.839C62.2123 203.69 62.2868 203.021 62.5101 201.905C64.5946 191.118 76.0592 140.753 92.2884 142.315C93.9262 145.291 100.924 151.391 100.924 151.391Z" fill="#FFD400" stroke="black" stroke-miterlimit="10"/>
<path d="M56.5545 238.06C55.6611 238.06 55.2144 237.837 55.14 237.763C55.0655 237.614 54.9166 237.614 54.8422 237.614H54.7678C54.7678 237.614 54.2466 237.763 53.5766 237.763C52.3855 237.763 51.641 237.316 51.5666 236.498C51.5666 236.424 51.4921 236.275 51.4177 236.275C51.3433 236.275 51.2688 236.2 51.1944 236.2C51.1199 236.2 51.1199 236.2 51.0455 236.2C51.0455 236.2 49.631 236.647 48.5888 236.647C47.8443 236.647 47.4721 236.498 47.3976 236.126C47.3976 235.903 46.951 228.91 51.8644 228.538C51.9388 228.538 52.0877 228.463 52.1622 228.389C52.1622 228.389 52.6833 227.72 53.8744 227.72C54.1722 227.72 54.47 227.794 54.8422 227.868H54.9166H59.6812C59.9045 227.868 60.0534 227.719 60.0534 227.571C60.1278 226.678 62.659 205.476 62.659 204.062C62.659 203.988 62.7334 203.542 62.8823 202.5C67.7213 203.393 72.3369 203.839 76.5803 203.913C71.8903 222.289 70.6991 226.604 70.4758 226.976C70.1036 227.72 70.848 228.24 71.7414 228.761C72.8581 229.505 74.1981 230.398 74.1236 231.886C74.1236 232.183 74.1236 232.406 74.1236 232.704C74.0492 235.605 73.9003 237.242 71.0714 237.316C70.0291 237.316 68.7635 237.391 67.2746 237.391C65.2646 237.391 63.4035 237.391 62.8079 237.316C62.659 236.944 62.3612 236.052 62.7334 235.456C63.0312 234.936 63.7012 234.638 64.8179 234.638C65.0413 234.638 65.1901 234.489 65.1901 234.266C65.1901 234.043 65.0413 233.894 64.8179 233.894H59.0112C58.9367 233.894 58.7878 233.969 58.7134 234.043C58.6389 234.117 58.6389 234.192 58.6389 234.341C58.6389 235.828 58.5645 237.614 58.3411 237.986C58.1178 237.837 57.4478 238.06 56.5545 238.06Z" fill="white"/>
<path d="M63.1057 202.723C67.6469 203.541 72.0392 203.988 75.9848 204.062C71.4436 221.768 70.2525 226.157 70.0291 226.604C69.508 227.645 70.5503 228.315 71.3692 228.91C72.6347 229.728 73.677 230.546 73.6025 231.737C73.6025 232.034 73.6025 232.257 73.6025 232.555C73.5281 235.456 73.3792 236.721 70.9225 236.795C69.8802 236.795 68.6147 236.87 67.1257 236.87C65.339 236.87 63.7012 236.87 62.9568 236.87C62.8079 236.498 62.7334 235.903 62.9568 235.531C63.2546 235.01 64.0735 234.936 64.7435 234.861C65.1157 234.861 65.4879 234.489 65.4879 234.117C65.4879 233.745 65.1157 233.373 64.7435 233.373H58.9367C58.7134 233.373 58.5645 233.448 58.4156 233.597C58.2667 233.745 58.1923 233.969 58.1923 234.117C58.1923 235.605 58.1178 237.167 57.9689 237.465C57.82 237.539 57.2989 237.688 56.5545 237.688C55.8844 237.688 55.5122 237.539 55.4378 237.465C55.2889 237.242 55.0655 237.167 54.8422 237.167C54.7678 237.167 54.6933 237.167 54.6933 237.167C54.6933 237.167 54.1722 237.316 53.5766 237.316C52.0877 237.316 51.9388 236.572 51.8644 236.349C51.8644 236.126 51.7155 235.977 51.4921 235.828C51.3433 235.754 51.2688 235.754 51.1199 235.754C51.0455 235.754 50.971 235.754 50.8966 235.828C50.8966 235.828 49.5566 236.275 48.5143 236.275C48.3654 236.275 47.7699 236.275 47.6954 236.052C47.621 235.308 47.3976 229.207 51.7899 228.835C52.0133 228.835 52.2366 228.687 52.311 228.538C52.311 228.538 52.7577 228.017 53.7255 228.017C54.0233 228.017 54.2466 228.091 54.5444 228.166C54.6189 228.166 54.6933 228.166 54.7678 228.166H59.6067C59.979 228.166 60.2767 227.868 60.3512 227.496C60.649 225.264 62.9568 205.401 62.9568 203.988C62.8823 203.839 62.9568 203.467 63.1057 202.723ZM62.5101 201.905C62.2868 203.021 62.2123 203.765 62.2123 203.839C62.2123 205.253 59.6067 227.273 59.6067 227.273H54.7678C54.3955 227.199 54.0233 227.124 53.7255 227.124C52.311 227.124 51.7155 227.943 51.7155 227.943C46.3554 228.389 46.8765 235.977 46.8765 235.977C47.0254 236.647 47.6954 236.795 48.4399 236.795C49.631 236.795 51.0455 236.349 51.0455 236.349C51.2688 237.688 52.4599 237.986 53.4277 237.986C54.1722 237.986 54.6933 237.837 54.6933 237.837C54.9166 238.209 55.6611 238.358 56.4056 238.358C57.2245 238.358 58.1178 238.135 58.4156 237.837C58.8623 237.242 58.7878 233.969 58.7878 233.969H64.5946C60.5745 234.117 62.4357 237.465 62.4357 237.465C62.4357 237.465 64.5946 237.539 67.1257 237.539C68.3913 237.539 69.7313 237.539 70.9225 237.465C74.5703 237.391 74.1981 234.638 74.347 231.662C74.4214 228.761 70.1036 227.943 70.6247 226.901C70.9969 226.232 74.5703 212.394 76.8781 203.318C71.8903 203.318 66.828 202.723 62.5101 201.905Z" fill="black"/>
<path d="M57.3734 227.645C57.3734 227.645 55.14 227.347 54.9911 229.431C54.8422 231.514 54.9911 237.242 54.9911 237.242" stroke="black" stroke-miterlimit="10" stroke-linecap="round" stroke-linejoin="round"/>
<path d="M51.4177 228.91L51.0455 235.828" stroke="black" stroke-miterlimit="10" stroke-linecap="round" stroke-linejoin="round"/>
<path d="M108.518 154.888C107.103 154.888 94.9684 148.267 92.8839 142.762C93.1073 142.762 93.3306 142.762 93.7028 142.762C95.2662 142.762 98.1696 142.39 100.477 140.083C102.636 137.852 103.753 134.43 103.753 129.817C103.753 129.594 103.604 129.445 103.381 129.445C100.999 129.445 99.5841 128.924 99.5841 128.924L89.1617 124.014L115.218 106.829L120.727 112.409C121.099 113.227 124.747 122.303 121.248 127.809C119.535 130.487 116.409 131.9 111.942 132.049C111.793 132.049 111.644 132.123 111.57 132.272C110.23 136.141 108.815 140.902 109.858 141.497C110.676 141.943 114.994 145.886 114.175 149.903C113.282 153.921 109.783 154.665 108.518 154.888Z" fill="white"/>
<path d="M114.994 107.425L120.206 112.707C120.652 113.823 124.077 122.452 120.727 127.66C119.089 130.189 116.111 131.603 111.719 131.677C111.421 131.677 111.123 131.9 111.049 132.198C107.922 141.051 108.964 141.571 109.485 141.869C110.23 142.241 114.399 146.109 113.654 149.904C112.91 153.549 109.783 154.218 108.443 154.516C106.731 154.442 95.8618 148.267 93.4051 143.134C93.4795 143.134 93.554 143.134 93.6284 143.134C95.2662 143.134 98.3185 142.762 100.701 140.381C102.934 138.075 104.125 134.578 104.051 129.817C104.051 129.445 103.679 129.073 103.306 129.073C101.147 129.073 99.8074 128.701 99.6585 128.627L89.8317 124.014L114.994 107.425ZM115.143 106.458L88.2683 124.163L99.3607 129.371C99.3607 129.371 100.775 129.892 103.306 129.892C103.381 141.199 96.6062 142.464 93.6284 142.464C92.8095 142.464 92.2884 142.39 92.2884 142.39C93.7773 148.118 106.731 155.334 108.518 155.334H108.592C109.932 155.037 113.654 154.293 114.473 150.127C115.292 145.961 110.974 141.795 109.932 141.274C108.89 140.753 111.793 132.495 111.793 132.495C129.437 131.975 120.876 112.335 120.876 112.335L115.143 106.458Z" fill="black"/>
<path d="M115.962 123.717C115.962 123.717 117.6 122.973 116.93 122.155C116.26 121.336 113.208 119.848 113.431 117.096C113.654 114.343 115.441 112.186 120.057 112.855" stroke="black" stroke-miterlimit="10" stroke-linecap="round" stroke-linejoin="round"/>
<path d="M110.9 125.056C110.9 125.056 112.314 127.511 116.185 126.469" stroke="black" stroke-miterlimit="10" stroke-linecap="round" stroke-linejoin="round"/>
<path d="M118.545 119.695C119.091 119.515 119.284 118.61 118.976 117.673C118.667 116.737 117.973 116.123 117.427 116.303C116.88 116.483 116.687 117.389 116.996 118.325C117.304 119.262 117.998 119.875 118.545 119.695Z" fill="black"/>
<path d="M110.128 120.948C110.674 120.768 110.867 119.863 110.559 118.926C110.25 117.99 109.556 117.376 109.01 117.556C108.463 117.736 108.27 118.641 108.579 119.578C108.888 120.514 109.581 121.128 110.128 120.948Z" fill="black"/>
<path d="M99.5841 125.874C99.5841 125.874 101.892 126.767 103.157 125.874" stroke="black" stroke-miterlimit="10" stroke-linecap="round" stroke-linejoin="round"/>
<path d="M111.793 132.495C111.793 132.495 109.56 132.421 108.666 131.603" stroke="black" stroke-miterlimit="10" stroke-linecap="round" stroke-linejoin="round"/>
<path d="M107.55 120.072C105.912 121.857 104.349 123.271 103.083 123.643L98.6163 123.717C98.6163 123.717 95.7129 128.999 103.306 129.892C103.306 129.892 99.063 131.305 94.6707 127.883C94.6707 127.883 93.8518 130.189 94.2984 136.29C94.6707 142.315 95.6384 170.883 77.2504 173.71C76.5059 173.784 60.649 182.786 58.2667 164.038C58.2667 164.038 47.7699 159.426 55.4378 148.639C57.2989 146.779 61.0212 144.101 64.8924 142.762C68.7635 141.423 73.007 136.438 73.677 128.701C74.2725 121.039 71.3691 93.2899 91.0228 97.0096C92.5862 98.2743 95.7873 100.581 95.7873 100.581C95.7873 100.581 123.779 91.8764 120.876 112.335C120.876 112.335 116.558 111.144 115.962 108.764C115.962 108.764 112.984 113.525 109.634 117.617" fill="black"/>
<path d="M56.7778 150.499C56.7778 150.499 62.5101 146.481 68.3913 143.506C74.2725 140.604 76.357 130.115 77.2503 118.286C78.1437 106.458 80.6004 97.0096 90.5017 100.06" stroke="white" stroke-width="2" stroke-miterlimit="10" stroke-linecap="round" stroke-linejoin="round"/>
<path d="M255.5 203C256.333 200.5 258.7 195.1 261.5 193.5C261.5 189.5 261.5 182.5 267.5 179C273.5 175.5 268.5 168 269.5 164C270.5 160 273.5 152 279 150" stroke="white" stroke-width="2" stroke-linecap="round"/>
<path d="M93.6284 103.928C93.6284 103.928 106.284 96.4888 116.781 103.928" stroke="white" stroke-width="2" stroke-miterlimit="10" stroke-linecap="round" stroke-linejoin="round"/>
<path d="M183.41 70.5254C183.41 70.5254 187.207 65.9873 190.631 64.4251C194.056 62.8628 194.949 62.9372 195.842 61.1517" stroke="white" stroke-width="2" stroke-miterlimit="10" stroke-linecap="round" stroke-linejoin="round"/>
<path d="M197.48 63.83C197.48 63.83 203.436 60.7054 207.828 60.4078" stroke="white" stroke-width="2" stroke-miterlimit="10" stroke-linecap="round" stroke-linejoin="round"/>
<path d="M324.857 65.3922C324.857 65.3922 335.354 58.4736 349.796 61.8957" stroke="white" stroke-width="2" stroke-miterlimit="10" stroke-linecap="round" stroke-linejoin="round"/>
<path d="M86.2583 111.963C85.6627 108.764 88.3428 101.399 93.4795 99.6877C98.6163 97.9767 97.7974 100.208 95.7873 101.994C93.7773 103.779 90.055 107.053 89.1617 109.136C88.2683 111.219 86.6305 114.194 86.2583 111.963Z" fill="#FABD00"/>
</svg>
