<svg width="126" height="126" viewBox="0 0 126 126" fill="none" xmlns="http://www.w3.org/2000/svg">
<path fill-rule="evenodd" clip-rule="evenodd" d="M11.1511 63.2424C11.1511 92.015 34.4759 115.34 63.2486 115.34C92.0212 115.34 115.346 92.015 115.346 63.2424C115.346 34.4698 92.0212 11.145 63.2486 11.145C34.4759 11.145 11.1511 34.4698 11.1511 63.2424ZM63.2486 125.492C28.869 125.492 0.998779 97.622 0.998779 63.2424C0.998779 28.8628 28.869 0.992641 63.2486 0.992641C97.6282 0.992641 125.498 28.8628 125.498 63.2424C125.498 97.622 97.6282 125.492 63.2486 125.492Z" fill="#EFEFEF"/>
<path fill-rule="evenodd" clip-rule="evenodd" d="M63.44 6.06727C63.44 3.26378 61.1593 0.969536 58.3649 1.19501C26.3589 3.77745 1.19018 30.5699 1.19018 63.2409C1.19018 97.6205 29.0604 125.491 63.44 125.491C96.1109 125.491 122.903 100.322 125.486 68.316C125.711 65.5216 123.417 63.2409 120.614 63.2409V63.2409C117.81 63.2409 115.563 65.5204 115.294 68.3109C112.745 94.7044 90.5021 115.338 63.44 115.338C34.6673 115.338 11.3425 92.0135 11.3425 63.2409C11.3425 36.1788 31.9765 13.936 58.3699 11.387C61.1604 11.1175 63.44 8.87076 63.44 6.06727V6.06727Z" fill="url(#paint0_linear_25_1624)"/>
<defs>
<linearGradient id="paint0_linear_25_1624" x1="124.846" y1="63.5703" x2="1.00492" y2="89.2607" gradientUnits="userSpaceOnUse">
<stop stop-color="#FFB63E"/>
<stop offset="1" stop-color="#FFE176" stop-opacity="0.58"/>
</linearGradient>
</defs>
</svg>
