<svg width="125" height="126" viewBox="0 0 125 126" fill="none" xmlns="http://www.w3.org/2000/svg">
<path fill-rule="evenodd" clip-rule="evenodd" d="M62.2498 11.1523C33.4771 11.1523 10.1523 34.4771 10.1523 63.2498C10.1523 92.0224 33.4771 115.347 62.2498 115.347C91.0224 115.347 114.347 92.0224 114.347 63.2498C114.347 34.4771 91.0224 11.1523 62.2498 11.1523ZM0 63.2498C0 28.8702 27.8702 1 62.2498 1C96.6294 1 124.5 28.8702 124.5 63.2498C124.5 97.6294 96.6294 125.5 62.2498 125.5C27.8702 125.5 0 97.6294 0 63.2498Z" fill="#EFEFEF"/>
<path fill-rule="evenodd" clip-rule="evenodd" d="M62.25 0.99242C62.25 0.992292 62.2499 0.992188 62.2498 0.992188C27.8702 0.992188 0 28.8624 0 63.242C0 97.6216 27.8702 125.492 62.2498 125.492C96.6294 125.492 124.5 97.6216 124.5 63.242C124.5 63.2408 124.499 63.2399 124.497 63.2399H114.349C114.348 63.2399 114.347 63.2408 114.347 63.242C114.347 92.0146 91.0224 115.339 62.2498 115.339C33.4771 115.339 10.1523 92.0146 10.1523 63.242C10.1523 34.4693 33.4771 11.1445 62.2498 11.1445C62.2499 11.1445 62.25 11.1444 62.25 11.1443V0.99242Z" fill="url(#paint0_linear_25_1601)"/>
<defs>
<linearGradient id="paint0_linear_25_1601" x1="101.79" y1="114.271" x2="29.1211" y2="10.0758" gradientUnits="userSpaceOnUse">
<stop stop-color="#FFB63E"/>
<stop offset="1" stop-color="#FFE176" stop-opacity="0.58"/>
</linearGradient>
</defs>
</svg>
